<svg width="32" height="32" viewBox="0 0 32 32" fill="none" xmlns="http://www.w3.org/2000/svg">
<g filter="url(#filter0_ii_194_45)">
<mask id="mask0_194_45" style="mask-type:alpha" maskUnits="userSpaceOnUse" x="0" y="0" width="32" height="32">
<path d="M14.3081 1.17793C14.8893 -0.392644 17.1107 -0.392645 17.6919 1.17793L20.9507 9.98352C21.1334 10.4773 21.5227 10.8666 22.0165 11.0493L30.8221 14.3081C32.3926 14.8893 32.3926 17.1107 30.8221 17.6919L22.0165 20.9507C21.5227 21.1334 21.1334 21.5227 20.9507 22.0165L17.6919 30.8221C17.1107 32.3926 14.8893 32.3926 14.3081 30.8221L11.0493 22.0165C10.8666 21.5227 10.4773 21.1334 9.98352 20.9507L1.17793 17.6919C-0.392644 17.1107 -0.392645 14.8893 1.17793 14.3081L9.98352 11.0493C10.4773 10.8666 10.8666 10.4773 11.0493 9.98352L14.3081 1.17793Z" fill="white"/>
</mask>
<g mask="url(#mask0_194_45)">
<rect y="-5.95337" width="38.08" height="38.08" fill="url(#paint0_linear_194_45)"/>
</g>
</g>
<defs>
<filter id="filter0_ii_194_45" x="-6" y="-6" width="42" height="42" filterUnits="userSpaceOnUse" color-interpolation-filters="sRGB">
<feFlood flood-opacity="0" result="BackgroundImageFix"/>
<feBlend mode="normal" in="SourceGraphic" in2="BackgroundImageFix" result="shape"/>
<feColorMatrix in="SourceAlpha" type="matrix" values="0 0 0 0 0 0 0 0 0 0 0 0 0 0 0 0 0 0 127 0" result="hardAlpha"/>
<feOffset dx="-6" dy="-6"/>
<feGaussianBlur stdDeviation="4"/>
<feComposite in2="hardAlpha" operator="arithmetic" k2="-1" k3="1"/>
<feColorMatrix type="matrix" values="0 0 0 0 0 0 0 0 0 0 0 0 0 0 0 0 0 0 0.2 0"/>
<feBlend mode="normal" in2="shape" result="effect1_innerShadow_194_45"/>
<feColorMatrix in="SourceAlpha" type="matrix" values="0 0 0 0 0 0 0 0 0 0 0 0 0 0 0 0 0 0 127 0" result="hardAlpha"/>
<feOffset dx="6" dy="6"/>
<feGaussianBlur stdDeviation="2"/>
<feComposite in2="hardAlpha" operator="arithmetic" k2="-1" k3="1"/>
<feColorMatrix type="matrix" values="0 0 0 0 1 0 0 0 0 1 0 0 0 0 1 0 0 0 0.25 0"/>
<feBlend mode="normal" in2="effect1_innerShadow_194_45" result="effect2_innerShadow_194_45"/>
</filter>
<linearGradient id="paint0_linear_194_45" x1="-6.66667" y1="-26.6666" x2="10" y2="13.3334" gradientUnits="userSpaceOnUse">
<stop stop-color="white"/>
<stop offset="1"/>
</linearGradient>
</defs>
</svg>
